<svg width="231" height="48" viewBox="0 0 231 48" fill="none" xmlns="http://www.w3.org/2000/svg">
<path d="M0.5 12.6316C0.5 5.65535 6.15535 0 13.1316 0H35.8684C42.8446 0 48.5 5.65535 48.5 12.6316V35.3684C48.5 42.3446 42.8446 48 35.8684 48H13.1316C6.15535 48 0.5 42.3446 0.5 35.3684V12.6316Z" fill="white"/>
<path d="M24.5 29.1535C26.8448 28.5587 29.5511 28.1787 32.3881 28.0459C34.4397 27.8963 36.5301 27.8284 38.6223 27.8435C39.1271 27.8558 39.6 27.9373 39.9451 28.0716C40.2902 28.2058 40.4816 28.3827 40.4805 28.5664L40.5186 35.4135C40.5186 35.5089 40.4665 35.6034 40.3653 35.6916C40.2642 35.7797 40.1159 35.8596 39.9292 35.9268C39.7424 35.9941 39.5208 36.0472 39.2772 36.0831C39.0336 36.1191 38.7727 36.1372 38.5098 36.1363C36.4545 36.1269 34.4023 36.1971 32.3881 36.3457C29.548 36.4739 26.8396 36.8548 24.5 37.4526C22.1604 36.8548 19.452 36.4739 16.6119 36.3457C14.5977 36.1971 12.5455 36.1269 10.4902 36.1363C10.2273 36.1372 9.96642 36.1191 9.7228 36.0831C9.47918 36.0472 9.25759 35.9941 9.07082 35.9268C8.88405 35.8596 8.73581 35.7797 8.63465 35.6916C8.53348 35.6034 8.4814 35.5089 8.48141 35.4135L8.51778 28.5664C8.51667 28.3826 8.70833 28.2057 9.0538 28.0714C9.39927 27.9371 9.87263 27.8556 10.3777 27.8435C12.4699 27.8284 14.5603 27.8963 16.6119 28.0459C19.4489 28.1787 22.1552 28.5587 24.5 29.1535ZM24.5 37.4526V29.1535" stroke="url(#paint0_linear_45_19)" stroke-width="3.20372" stroke-linecap="round" stroke-linejoin="round"/>
<path d="M26.2099 8.25626C26.2099 7.85031 25.8716 7.51202 25.4761 7.52242L23.0404 7.52242C22.6449 7.51201 22.3066 7.85031 22.3066 8.25626L22.3014 10.1663L26.2047 10.1663M22.3066 22.7872L24.2583 24.7389L26.2099 22.7872L26.2047 11.2697L22.3014 11.2697L22.3066 22.7872Z" fill="url(#paint1_linear_45_19)"/>
<path d="M80.3308 20.2132C80.2388 19.2851 79.8437 18.5641 79.1457 18.0501C78.4477 17.5362 77.5004 17.2793 76.3038 17.2793C75.4908 17.2793 74.8043 17.3943 74.2443 17.6244C73.6844 17.8469 73.2548 18.1575 72.9557 18.5564C72.6642 18.9553 72.5185 19.4078 72.5185 19.9141C72.5031 20.3359 72.5913 20.7041 72.7831 21.0186C72.9825 21.3331 73.2548 21.6054 73.6 21.8355C73.9452 22.058 74.344 22.2536 74.7966 22.4223C75.2491 22.5834 75.7324 22.7214 76.2463 22.8365L78.3634 23.3428C79.3912 23.5729 80.3347 23.8797 81.1937 24.2632C82.0528 24.6467 82.7969 25.1185 83.4259 25.6784C84.0548 26.2384 84.5419 26.898 84.8871 27.6574C85.2399 28.4168 85.4202 29.2874 85.4278 30.2692C85.4202 31.7112 85.052 32.9615 84.3233 34.02C83.6023 35.0709 82.5591 35.8878 81.1937 36.4707C79.8361 37.046 78.1984 37.3337 76.2808 37.3337C74.3786 37.3337 72.7217 37.0422 71.3104 36.4592C69.9067 35.8763 68.8098 35.0134 68.0197 33.8705C67.2374 32.7199 66.827 31.297 66.7886 29.6018H71.6095C71.6632 30.3919 71.8895 31.0516 72.2884 31.5808C72.6949 32.1024 73.2357 32.4974 73.9107 32.7659C74.5933 33.0267 75.3642 33.1571 76.2233 33.1571C77.067 33.1571 77.7996 33.0344 78.4209 32.7889C79.0499 32.5435 79.5369 32.2021 79.8821 31.7649C80.2273 31.3277 80.3999 30.8253 80.3999 30.2577C80.3999 29.7284 80.2426 29.2835 79.9281 28.923C79.6213 28.5625 79.1687 28.2557 78.5705 28.0026C77.9798 27.7494 77.255 27.5193 76.3959 27.3122L73.8301 26.6679C71.8435 26.1847 70.2749 25.4291 69.1243 24.4013C67.9737 23.3734 67.4023 21.9889 67.4099 20.2477C67.4023 18.821 67.782 17.5746 68.549 16.5084C69.3237 15.4422 70.3861 14.6099 71.7361 14.0116C73.0861 13.4134 74.6202 13.1142 76.3384 13.1142C78.0872 13.1142 79.6136 13.4134 80.9176 14.0116C82.2293 14.6099 83.2494 15.4422 83.9781 16.5084C84.7068 17.5746 85.0827 18.8095 85.1057 20.2132H80.3308ZM87.1589 37V13.4364H96.4555C98.2427 13.4364 99.7653 13.7777 101.023 14.4604C102.281 15.1354 103.24 16.075 103.9 17.2793C104.567 18.4759 104.901 19.8565 104.901 21.4213C104.901 22.9861 104.563 24.3668 103.888 25.5634C103.213 26.7599 102.235 27.6919 100.954 28.3592C99.6809 29.0266 98.1391 29.3602 96.3289 29.3602H90.4035V25.3678H95.5235C96.4823 25.3678 97.2724 25.2028 97.8937 24.873C98.5226 24.5355 98.9905 24.0714 99.2974 23.4808C99.6119 22.8825 99.7691 22.196 99.7691 21.4213C99.7691 20.6389 99.6119 19.9562 99.2974 19.3733C98.9905 18.7827 98.5226 18.3263 97.8937 18.0041C97.2647 17.6743 96.467 17.5094 95.5005 17.5094H92.1408V37H87.1589ZM106.517 37V13.4364H111.499V23.826H111.809L120.289 13.4364H126.26L117.516 23.9871L126.364 37H120.404L113.949 27.3122L111.499 30.3037V37H106.517ZM145.897 20.2132C145.804 19.2851 145.409 18.5641 144.711 18.0501C144.013 17.5362 143.066 17.2793 141.87 17.2793C141.056 17.2793 140.37 17.3943 139.81 17.6244C139.25 17.8469 138.821 18.1575 138.521 18.5564C138.23 18.9553 138.084 19.4078 138.084 19.9141C138.069 20.3359 138.157 20.7041 138.349 21.0186C138.548 21.3331 138.821 21.6054 139.166 21.8355C139.511 22.058 139.91 22.2536 140.362 22.4223C140.815 22.5834 141.298 22.7214 141.812 22.8365L143.929 23.3428C144.957 23.5729 145.9 23.8797 146.759 24.2632C147.619 24.6467 148.363 25.1185 148.992 25.6784C149.621 26.2384 150.108 26.898 150.453 27.6574C150.806 28.4168 150.986 29.2874 150.994 30.2692C150.986 31.7112 150.618 32.9615 149.889 34.02C149.168 35.0709 148.125 35.8878 146.759 36.4707C145.402 37.046 143.764 37.3337 141.847 37.3337C139.944 37.3337 138.287 37.0422 136.876 36.4592C135.472 35.8763 134.375 35.0134 133.585 33.8705C132.803 32.7199 132.393 31.297 132.354 29.6018H137.175C137.229 30.3919 137.455 31.0516 137.854 31.5808C138.261 32.1024 138.801 32.4974 139.476 32.7659C140.159 33.0267 140.93 33.1571 141.789 33.1571C142.633 33.1571 143.365 33.0344 143.987 32.7889C144.616 32.5435 145.103 32.2021 145.448 31.7649C145.793 31.3277 145.966 30.8253 145.966 30.2577C145.966 29.7284 145.808 29.2835 145.494 28.923C145.187 28.5625 144.734 28.2557 144.136 28.0026C143.546 27.7494 142.821 27.5193 141.962 27.3122L139.396 26.6679C137.409 26.1847 135.841 25.4291 134.69 24.4013C133.539 23.3734 132.968 21.9889 132.976 20.2477C132.968 18.821 133.348 17.5746 134.115 16.5084C134.889 15.4422 135.952 14.6099 137.302 14.0116C138.652 13.4134 140.186 13.1142 141.904 13.1142C143.653 13.1142 145.179 13.4134 146.483 14.0116C147.795 14.6099 148.815 15.4422 149.544 16.5084C150.273 17.5746 150.648 18.8095 150.671 20.2132H145.897ZM152.633 37V19.3273H157.534V37H152.633ZM155.095 17.0491C154.366 17.0491 153.741 16.8075 153.219 16.3243C152.705 15.8334 152.448 15.2466 152.448 14.5639C152.448 13.8889 152.705 13.3098 153.219 12.8266C153.741 12.3357 154.366 12.0902 155.095 12.0902C155.823 12.0902 156.445 12.3357 156.959 12.8266C157.48 13.3098 157.741 13.8889 157.741 14.5639C157.741 15.2466 157.48 15.8334 156.959 16.3243C156.445 16.8075 155.823 17.0491 155.095 17.0491ZM174.545 24.3668L170.057 24.6429C169.981 24.2594 169.816 23.9142 169.563 23.6074C169.309 23.2929 168.976 23.0436 168.562 22.8595C168.155 22.6678 167.668 22.5719 167.1 22.5719C166.341 22.5719 165.7 22.733 165.179 23.0551C164.657 23.3696 164.397 23.7915 164.397 24.3207C164.397 24.7426 164.565 25.0993 164.903 25.3908C165.24 25.6822 165.819 25.9162 166.64 26.0926L169.839 26.7369C171.557 27.0898 172.838 27.6574 173.682 28.4398C174.525 29.2222 174.947 30.25 174.947 31.5233C174.947 32.6815 174.606 33.6979 173.923 34.5723C173.248 35.4467 172.32 36.1294 171.139 36.6203C169.965 37.1036 168.611 37.3452 167.077 37.3452C164.738 37.3452 162.874 36.8581 161.486 35.8839C160.105 34.9021 159.296 33.5675 159.058 31.88L163.879 31.6268C164.024 32.3402 164.377 32.8848 164.937 33.2607C165.497 33.6288 166.214 33.8129 167.089 33.8129C167.948 33.8129 168.638 33.648 169.16 33.3182C169.689 32.9807 169.958 32.5473 169.965 32.018C169.958 31.5732 169.77 31.2088 169.401 30.925C169.033 30.6335 168.466 30.4111 167.699 30.2577L164.638 29.6479C162.912 29.3027 161.627 28.7044 160.784 27.853C159.948 27.0016 159.53 25.9162 159.53 24.5969C159.53 23.4616 159.836 22.4837 160.45 21.6629C161.071 20.8422 161.942 20.2094 163.062 19.7645C164.189 19.3196 165.509 19.0972 167.02 19.0972C169.252 19.0972 171.008 19.5689 172.289 20.5124C173.578 21.4558 174.33 22.7406 174.545 24.3668ZM179.9 37L175.09 19.3273H180.049L182.788 31.2011H182.949L185.802 19.3273H190.669L193.569 31.1321H193.718L196.41 19.3273H201.358L196.56 37H191.371L188.334 25.8855H188.115L185.077 37H179.9ZM207.392 37.3337C206.265 37.3337 205.26 37.1381 204.378 36.7469C203.496 36.348 202.797 35.7612 202.284 34.9865C201.777 34.2041 201.524 33.23 201.524 32.0641C201.524 31.0822 201.704 30.2577 202.065 29.5903C202.425 28.923 202.916 28.3861 203.538 27.9795C204.159 27.573 204.865 27.2662 205.655 27.0591C206.452 26.852 207.289 26.7063 208.163 26.6219C209.191 26.5145 210.019 26.4148 210.648 26.3227C211.277 26.223 211.734 26.0773 212.017 25.8855C212.301 25.6938 212.443 25.4099 212.443 25.0341V24.9651C212.443 24.2364 212.213 23.6726 211.753 23.2737C211.3 22.8749 210.656 22.6754 209.82 22.6754C208.938 22.6754 208.236 22.871 207.714 23.2622C207.193 23.6457 206.847 24.129 206.679 24.7119L202.146 24.3438C202.376 23.2699 202.828 22.3418 203.503 21.5594C204.178 20.7693 205.049 20.1634 206.115 19.7415C207.189 19.3119 208.431 19.0972 209.843 19.0972C210.825 19.0972 211.764 19.2122 212.662 19.4423C213.567 19.6724 214.368 20.0291 215.066 20.5124C215.772 20.9956 216.328 21.6169 216.735 22.3763C217.141 23.128 217.345 24.0293 217.345 25.0801V37H212.696V34.5493H212.558C212.274 35.1016 211.895 35.5886 211.419 36.0105C210.944 36.4247 210.372 36.7507 209.705 36.9885C209.037 37.2186 208.267 37.3337 207.392 37.3337ZM208.796 33.951C209.517 33.951 210.153 33.8091 210.706 33.5253C211.258 33.2338 211.691 32.8426 212.006 32.3517C212.32 31.8608 212.478 31.3047 212.478 30.6834V28.808C212.324 28.9077 212.113 28.9997 211.845 29.0841C211.584 29.1608 211.289 29.2337 210.959 29.3027C210.629 29.3641 210.299 29.4216 209.969 29.4753C209.64 29.5213 209.34 29.5635 209.072 29.6018C208.497 29.6862 207.994 29.8205 207.565 30.0045C207.135 30.1886 206.801 30.4379 206.564 30.7524C206.326 31.0592 206.207 31.4428 206.207 31.903C206.207 32.5703 206.449 33.0804 206.932 33.4332C207.423 33.7784 208.044 33.951 208.796 33.951Z" fill="white"/>
<defs>
<linearGradient id="paint0_linear_45_19" x1="40.1275" y1="37.3353" x2="38.0618" y2="23.5765" gradientUnits="userSpaceOnUse">
<stop offset="0.312611" stop-color="#8E0690"/>
<stop offset="0.98573" stop-color="#C634AE"/>
</linearGradient>
<linearGradient id="paint1_linear_45_19" x1="33.3989" y1="15.3695" x2="16.9419" y2="9.8903" gradientUnits="userSpaceOnUse">
<stop offset="0.312611" stop-color="#8E0690"/>
<stop offset="0.98573" stop-color="#C634AE"/>
</linearGradient>
</defs>
</svg>
