<svg width="154" height="32" viewBox="0 0 154 32" fill="none" xmlns="http://www.w3.org/2000/svg">
<g filter="url(#filter0_d_45_53)">
<path d="M8.42383 8.42153C8.42383 7.49136 9.17787 6.7373 10.108 6.7373C11.0382 6.7373 11.7922 7.49136 11.7922 8.42153V23.5794C11.7922 24.5096 11.0382 25.2636 10.108 25.2636C9.17787 25.2636 8.42383 24.5096 8.42383 23.5794V8.42153Z" fill="white"/>
</g>
<g filter="url(#filter1_d_45_53)">
<path d="M14.7422 15.1569C14.7422 14.2267 15.4962 13.4727 16.4264 13.4727C17.3566 13.4727 18.1106 14.2267 18.1106 15.1569V23.5779C18.1106 24.5081 17.3566 25.2621 16.4264 25.2621C15.4962 25.2621 14.7422 24.5081 14.7422 23.5779V15.1569Z" fill="white" fill-opacity="0.9"/>
</g>
<g filter="url(#filter2_d_45_53)">
<path d="M21.0547 10.9459C21.0547 10.0158 21.8087 9.26172 22.7389 9.26172C23.6691 9.26172 24.4231 10.0158 24.4231 10.9459V23.5775C24.4231 24.5077 23.6691 25.2617 22.7389 25.2617C21.8087 25.2617 21.0547 24.5077 21.0547 23.5775V10.9459Z" fill="white" fill-opacity="0.7"/>
</g>
<path d="M0.5 8.42107C0.5 3.77023 4.27023 0 8.92108 0H24.0789C28.7297 0 32.5 3.77023 32.5 8.42107V23.5789C32.5 28.2297 28.7297 32 24.0789 32H8.92108C4.27023 32 0.5 28.2297 0.5 23.5789V8.42107Z" fill="white"/>
<path d="M16.5 19.5843C18.1102 19.1759 19.9686 18.915 21.9168 18.8238C23.3256 18.721 24.7611 18.6744 26.1978 18.6848C26.5444 18.6932 26.8692 18.7492 27.1062 18.8414C27.3432 18.9336 27.4746 19.0551 27.4738 19.1812L27.5 23.8831C27.5 23.9486 27.4642 24.0135 27.3948 24.0741C27.3253 24.1346 27.2235 24.1895 27.0953 24.2356C26.967 24.2818 26.8148 24.3183 26.6475 24.3429C26.4802 24.3676 26.3011 24.3801 26.1205 24.3795C24.7092 24.373 23.3 24.4212 21.9168 24.5232C19.9665 24.6113 18.1066 24.8729 16.5 25.2834C14.8934 24.8729 13.0335 24.6113 11.0832 24.5232C9.70004 24.4212 8.29081 24.373 6.87946 24.3795C6.69887 24.3801 6.51976 24.3676 6.35246 24.3429C6.18517 24.3183 6.033 24.2818 5.90475 24.2356C5.77649 24.1895 5.67469 24.1346 5.60523 24.0741C5.53576 24.0135 5.49999 23.9486 5.5 23.8831L5.52497 19.1812C5.52421 19.055 5.65582 18.9335 5.89306 18.8413C6.13029 18.7491 6.45535 18.6931 6.80216 18.6848C8.23887 18.6744 9.67441 18.721 11.0832 18.8238C13.0314 18.915 14.8898 19.1759 16.5 19.5843ZM16.5 25.2834V19.5843" stroke="url(#paint0_linear_45_53)" stroke-width="2.2" stroke-linecap="round" stroke-linejoin="round"/>
<path d="M17.6742 5.23421C17.6742 4.95544 17.4419 4.72314 17.1703 4.73029L15.4977 4.73028C15.2261 4.72314 14.9938 4.95544 14.9938 5.23421L14.9902 6.54585L17.6706 6.54585M14.9938 15.2127L16.334 16.5529L17.6742 15.2127L17.6706 7.30352L14.9902 7.30352L14.9938 15.2127Z" fill="url(#paint1_linear_45_53)"/>
<path d="M53.3872 13.8088C53.3259 13.1901 53.0625 12.7094 52.5972 12.3668C52.1318 12.0241 51.5003 11.8528 50.7026 11.8528C50.1605 11.8528 49.7028 11.9295 49.3295 12.083C48.9562 12.2313 48.6699 12.4384 48.4705 12.7043C48.2761 12.9702 48.179 13.2719 48.179 13.6094C48.1687 13.8906 48.2276 14.1361 48.3554 14.3457C48.4884 14.5554 48.6699 14.7369 48.9 14.8903C49.1301 15.0386 49.396 15.169 49.6977 15.2815C49.9994 15.3889 50.3216 15.481 50.6642 15.5577L52.0756 15.8952C52.7608 16.0486 53.3898 16.2531 53.9625 16.5088C54.5352 16.7645 55.0312 17.079 55.4506 17.4523C55.8699 17.8256 56.1946 18.2653 56.4247 18.7716C56.6599 19.2778 56.7801 19.8582 56.7852 20.5128C56.7801 21.4741 56.5347 22.3077 56.0489 23.0134C55.5682 23.7139 54.8727 24.2585 53.9625 24.6472C53.0574 25.0307 51.9656 25.2224 50.6872 25.2224C49.419 25.2224 48.3145 25.0281 47.3736 24.6395C46.4378 24.2509 45.7065 23.6756 45.1798 22.9136C44.6582 22.1466 44.3847 21.198 44.3591 20.0679H47.573C47.6088 20.5946 47.7597 21.0344 48.0256 21.3872C48.2966 21.7349 48.6571 21.9983 49.1071 22.1773C49.5622 22.3511 50.0761 22.4381 50.6489 22.4381C51.2114 22.4381 51.6997 22.3563 52.1139 22.1926C52.5332 22.029 52.858 21.8014 53.0881 21.5099C53.3182 21.2185 53.4332 20.8835 53.4332 20.5051C53.4332 20.1523 53.3284 19.8557 53.1187 19.6153C52.9142 19.375 52.6125 19.1705 52.2136 19.0017C51.8199 18.833 51.3366 18.6795 50.7639 18.5415L49.0534 18.1119C47.729 17.7898 46.6832 17.2861 45.9162 16.6009C45.1491 15.9156 44.7682 14.9926 44.7733 13.8318C44.7682 12.8807 45.0213 12.0497 45.5327 11.3389C46.0491 10.6281 46.7574 10.0733 47.6574 9.67443C48.5574 9.27557 49.5801 9.07614 50.7256 9.07614C51.8915 9.07614 52.9091 9.27557 53.7784 9.67443C54.6528 10.0733 55.333 10.6281 55.8187 11.3389C56.3045 12.0497 56.5551 12.873 56.5705 13.8088H53.3872ZM57.9392 25V9.29091H64.137C65.3285 9.29091 66.3435 9.51847 67.1821 9.97358C68.0208 10.4236 68.66 11.05 69.0998 11.8528C69.5446 12.6506 69.7671 13.571 69.7671 14.6142C69.7671 15.6574 69.5421 16.5778 69.0921 17.3756C68.6421 18.1733 67.9901 18.7946 67.1361 19.2395C66.2873 19.6844 65.2594 19.9068 64.0526 19.9068H60.1023V17.2452H63.5157C64.1549 17.2452 64.6816 17.1352 65.0958 16.9153C65.5151 16.6903 65.827 16.381 66.0316 15.9872C66.2412 15.5884 66.3461 15.1307 66.3461 14.6142C66.3461 14.0926 66.2412 13.6375 66.0316 13.2489C65.827 12.8551 65.5151 12.5509 65.0958 12.3361C64.6765 12.1162 64.1446 12.0063 63.5003 12.0063H61.2606V25H57.9392ZM70.8444 25V9.29091H74.1657V16.2173H74.3728L80.0259 9.29091H84.0069L78.1774 16.3247L84.0759 25H80.1026L75.7995 18.5415L74.1657 20.5358V25H70.8444ZM97.0977 13.8088C97.0363 13.1901 96.773 12.7094 96.3076 12.3668C95.8423 12.0241 95.2107 11.8528 94.413 11.8528C93.871 11.8528 93.4133 11.9295 93.04 12.083C92.6667 12.2313 92.3804 12.4384 92.1809 12.7043C91.9866 12.9702 91.8894 13.2719 91.8894 13.6094C91.8792 13.8906 91.938 14.1361 92.0659 14.3457C92.1988 14.5554 92.3804 14.7369 92.6105 14.8903C92.8406 15.0386 93.1065 15.169 93.4082 15.2815C93.7099 15.3889 94.0321 15.481 94.3747 15.5577L95.786 15.8952C96.4713 16.0486 97.1002 16.2531 97.673 16.5088C98.2457 16.7645 98.7417 17.079 99.161 17.4523C99.5804 17.8256 99.9051 18.2653 100.135 18.7716C100.37 19.2778 100.491 19.8582 100.496 20.5128C100.491 21.4741 100.245 22.3077 99.7593 23.0134C99.2786 23.7139 98.5832 24.2585 97.673 24.6472C96.7679 25.0307 95.6761 25.2224 94.3977 25.2224C93.1295 25.2224 92.025 25.0281 91.084 24.6395C90.1482 24.2509 89.417 23.6756 88.8903 22.9136C88.3687 22.1466 88.0951 21.198 88.0696 20.0679H91.2835C91.3193 20.5946 91.4701 21.0344 91.736 21.3872C92.0071 21.7349 92.3676 21.9983 92.8176 22.1773C93.2727 22.3511 93.7866 22.4381 94.3593 22.4381C94.9218 22.4381 95.4102 22.3563 95.8244 22.1926C96.2437 22.029 96.5684 21.8014 96.7985 21.5099C97.0286 21.2185 97.1437 20.8835 97.1437 20.5051C97.1437 20.1523 97.0389 19.8557 96.8292 19.6153C96.6247 19.375 96.323 19.1705 95.9241 19.0017C95.5304 18.833 95.0471 18.6795 94.4744 18.5415L92.7639 18.1119C91.4394 17.7898 90.3937 17.2861 89.6267 16.6009C88.8596 15.9156 88.4786 14.9926 88.4838 13.8318C88.4786 12.8807 88.7318 12.0497 89.2431 11.3389C89.7596 10.6281 90.4679 10.0733 91.3679 9.67443C92.2679 9.27557 93.2906 9.07614 94.436 9.07614C95.6019 9.07614 96.6196 9.27557 97.4889 9.67443C98.3633 10.0733 99.0434 10.6281 99.5292 11.3389C100.015 12.0497 100.266 12.873 100.281 13.8088H97.0977ZM101.588 25V13.2182H104.856V25H101.588ZM103.23 11.6994C102.744 11.6994 102.327 11.5384 101.98 11.2162C101.637 10.8889 101.466 10.4977 101.466 10.0426C101.466 9.59261 101.637 9.20653 101.98 8.88438C102.327 8.5571 102.744 8.39347 103.23 8.39347C103.716 8.39347 104.13 8.5571 104.472 8.88438C104.82 9.20653 104.994 9.59261 104.994 10.0426C104.994 10.4977 104.82 10.8889 104.472 11.2162C104.13 11.5384 103.716 11.6994 103.23 11.6994ZM116.196 16.5778L113.205 16.7619C113.154 16.5063 113.044 16.2761 112.875 16.0716C112.706 15.8619 112.484 15.6957 112.208 15.573C111.937 15.4452 111.612 15.3813 111.234 15.3813C110.727 15.3813 110.3 15.4886 109.953 15.7034C109.605 15.9131 109.431 16.1943 109.431 16.5472C109.431 16.8284 109.544 17.0662 109.769 17.2605C109.994 17.4548 110.38 17.6108 110.927 17.7284L113.059 18.158C114.205 18.3932 115.059 18.7716 115.621 19.2932C116.184 19.8148 116.465 20.5 116.465 21.3489C116.465 22.121 116.237 22.7986 115.782 23.3815C115.332 23.9645 114.713 24.4196 113.926 24.7469C113.144 25.069 112.241 25.2301 111.218 25.2301C109.659 25.2301 108.416 24.9054 107.49 24.256C106.57 23.6014 106.03 22.7116 105.872 21.5866L109.086 21.4179C109.183 21.8935 109.418 22.2565 109.792 22.5071C110.165 22.7526 110.643 22.8753 111.226 22.8753C111.799 22.8753 112.259 22.7653 112.607 22.5455C112.959 22.3205 113.138 22.0315 113.144 21.6787C113.138 21.3821 113.013 21.1392 112.768 20.95C112.522 20.7557 112.144 20.6074 111.632 20.5051L109.592 20.0986C108.442 19.8685 107.585 19.4696 107.022 18.902C106.465 18.3344 106.186 17.6108 106.186 16.7313C106.186 15.9744 106.391 15.3224 106.8 14.7753C107.214 14.2281 107.795 13.8063 108.541 13.5097C109.293 13.2131 110.172 13.0648 111.18 13.0648C112.668 13.0648 113.839 13.3793 114.693 14.0082C115.552 14.6372 116.053 15.4938 116.196 16.5778ZM119.767 25L116.56 13.2182H119.866L121.692 21.1341H121.799L123.701 13.2182H126.946L128.879 21.0881H128.979L130.774 13.2182H134.072L130.873 25H127.414L125.389 17.5903H125.243L123.218 25H119.767ZM138.095 25.2224C137.343 25.2224 136.673 25.092 136.085 24.8313C135.497 24.5653 135.032 24.1741 134.689 23.6577C134.352 23.1361 134.183 22.4866 134.183 21.7094C134.183 21.0548 134.303 20.5051 134.543 20.0602C134.784 19.6153 135.111 19.2574 135.525 18.9864C135.939 18.7153 136.41 18.5108 136.936 18.3727C137.468 18.2347 138.026 18.1375 138.609 18.0813C139.294 18.0097 139.846 17.9432 140.265 17.8818C140.685 17.8153 140.989 17.7182 141.178 17.5903C141.367 17.4625 141.462 17.2733 141.462 17.0227V16.9767C141.462 16.4909 141.309 16.1151 141.002 15.8491C140.7 15.5832 140.271 15.4503 139.713 15.4503C139.125 15.4503 138.657 15.5807 138.309 15.8415C137.962 16.0972 137.732 16.4193 137.619 16.808L134.597 16.5625C134.75 15.8466 135.052 15.2278 135.502 14.7063C135.952 14.1795 136.533 13.7756 137.243 13.4943C137.959 13.208 138.788 13.0648 139.729 13.0648C140.383 13.0648 141.009 13.1415 141.608 13.2949C142.211 13.4483 142.746 13.6861 143.211 14.0082C143.681 14.3304 144.052 14.7446 144.323 15.2509C144.594 15.752 144.73 16.3528 144.73 17.0534V25H141.631V23.3662H141.539C141.35 23.7344 141.096 24.0591 140.779 24.3403C140.462 24.6165 140.081 24.8338 139.636 24.9923C139.192 25.1457 138.678 25.2224 138.095 25.2224ZM139.031 22.9673C139.511 22.9673 139.936 22.8727 140.304 22.6835C140.672 22.4892 140.961 22.2284 141.171 21.9011C141.38 21.5739 141.485 21.2031 141.485 20.7889V19.5386C141.383 19.6051 141.242 19.6665 141.063 19.7227C140.889 19.7739 140.692 19.8224 140.473 19.8685C140.253 19.9094 140.033 19.9477 139.813 19.9835C139.593 20.0142 139.394 20.0423 139.215 20.0679C138.831 20.1241 138.496 20.2136 138.21 20.3364C137.923 20.4591 137.701 20.6253 137.542 20.8349C137.384 21.0395 137.305 21.2952 137.305 21.602C137.305 22.0469 137.466 22.3869 137.788 22.6222C138.115 22.8523 138.529 22.9673 139.031 22.9673Z" fill="white"/>
<defs>
<filter id="filter0_d_45_53" x="7.42383" y="6.2373" width="5.36838" height="20.5262" filterUnits="userSpaceOnUse" color-interpolation-filters="sRGB">
<feFlood flood-opacity="0" result="BackgroundImageFix"/>
<feColorMatrix in="SourceAlpha" type="matrix" values="0 0 0 0 0 0 0 0 0 0 0 0 0 0 0 0 0 0 127 0" result="hardAlpha"/>
<feOffset dy="0.5"/>
<feGaussianBlur stdDeviation="0.5"/>
<feComposite in2="hardAlpha" operator="out"/>
<feColorMatrix type="matrix" values="0 0 0 0 0 0 0 0 0 0 0 0 0 0 0 0 0 0 0.12 0"/>
<feBlend mode="normal" in2="BackgroundImageFix" result="effect1_dropShadow_45_53"/>
<feBlend mode="normal" in="SourceGraphic" in2="effect1_dropShadow_45_53" result="shape"/>
</filter>
<filter id="filter1_d_45_53" x="13.7422" y="12.9727" width="5.36839" height="13.7894" filterUnits="userSpaceOnUse" color-interpolation-filters="sRGB">
<feFlood flood-opacity="0" result="BackgroundImageFix"/>
<feColorMatrix in="SourceAlpha" type="matrix" values="0 0 0 0 0 0 0 0 0 0 0 0 0 0 0 0 0 0 127 0" result="hardAlpha"/>
<feOffset dy="0.5"/>
<feGaussianBlur stdDeviation="0.5"/>
<feComposite in2="hardAlpha" operator="out"/>
<feColorMatrix type="matrix" values="0 0 0 0 0 0 0 0 0 0 0 0 0 0 0 0 0 0 0.12 0"/>
<feBlend mode="normal" in2="BackgroundImageFix" result="effect1_dropShadow_45_53"/>
<feBlend mode="normal" in="SourceGraphic" in2="effect1_dropShadow_45_53" result="shape"/>
</filter>
<filter id="filter2_d_45_53" x="20.0547" y="8.76172" width="5.36839" height="18" filterUnits="userSpaceOnUse" color-interpolation-filters="sRGB">
<feFlood flood-opacity="0" result="BackgroundImageFix"/>
<feColorMatrix in="SourceAlpha" type="matrix" values="0 0 0 0 0 0 0 0 0 0 0 0 0 0 0 0 0 0 127 0" result="hardAlpha"/>
<feOffset dy="0.5"/>
<feGaussianBlur stdDeviation="0.5"/>
<feComposite in2="hardAlpha" operator="out"/>
<feColorMatrix type="matrix" values="0 0 0 0 0 0 0 0 0 0 0 0 0 0 0 0 0 0 0.12 0"/>
<feBlend mode="normal" in2="BackgroundImageFix" result="effect1_dropShadow_45_53"/>
<feBlend mode="normal" in="SourceGraphic" in2="effect1_dropShadow_45_53" result="shape"/>
</filter>
<linearGradient id="paint0_linear_45_53" x1="27.2314" y1="25.2028" x2="25.813" y2="15.7546" gradientUnits="userSpaceOnUse">
<stop offset="0.312611" stop-color="#8E0690"/>
<stop offset="0.98573" stop-color="#C634AE"/>
</linearGradient>
<linearGradient id="paint1_linear_45_53" x1="22.6109" y1="10.1189" x2="11.3098" y2="6.35631" gradientUnits="userSpaceOnUse">
<stop offset="0.312611" stop-color="#8E0690"/>
<stop offset="0.98573" stop-color="#C634AE"/>
</linearGradient>
</defs>
</svg>
