<svg width="166" height="36" viewBox="0 0 166 36" fill="none" xmlns="http://www.w3.org/2000/svg">
<path d="M56.6338 13.8319C56.5616 13.1039 56.2517 12.5383 55.7041 12.1351C55.1566 11.732 54.4135 11.5304 53.4749 11.5304C52.8371 11.5304 52.2986 11.6207 51.8593 11.8012C51.4201 11.9757 51.0831 12.2194 50.8485 12.5323C50.6198 12.8451 50.5055 13.2001 50.5055 13.5973C50.4935 13.9282 50.5627 14.217 50.7131 14.4637C50.8695 14.7104 51.0831 14.924 51.3539 15.1045C51.6247 15.279 51.9375 15.4324 52.2925 15.5648C52.6475 15.6912 53.0266 15.7995 53.4297 15.8897L55.0904 16.2868C55.8967 16.4673 56.6368 16.708 57.3107 17.0089C57.9846 17.3097 58.5682 17.6798 59.0616 18.119C59.555 18.5582 59.9371 19.0757 60.2078 19.6714C60.4846 20.267 60.626 20.95 60.632 21.7201C60.626 22.8513 60.3372 23.8321 59.7656 24.6624C59.2 25.4867 58.3817 26.1275 57.3107 26.5848C56.2457 27.0361 54.961 27.2617 53.4568 27.2617C51.9646 27.2617 50.665 27.0331 49.5578 26.5758C48.4567 26.1185 47.5963 25.4416 46.9766 24.5451C46.3628 23.6425 46.0409 22.5264 46.0108 21.1967H49.7925C49.8346 21.8164 50.0121 22.3339 50.325 22.749C50.6439 23.1582 51.0681 23.4681 51.5976 23.6786C52.1331 23.8832 52.7378 23.9855 53.4117 23.9855C54.0735 23.9855 54.6482 23.8892 55.1355 23.6967C55.6289 23.5042 56.011 23.2364 56.2818 22.8934C56.5525 22.5505 56.6879 22.1564 56.6879 21.7111C56.6879 21.2959 56.5646 20.947 56.3179 20.6642C56.0772 20.3814 55.7222 20.1407 55.2529 19.9421C54.7896 19.7436 54.221 19.5631 53.5471 19.4006L51.5344 18.8952C49.976 18.5161 48.7455 17.9234 47.843 17.1172C46.9405 16.3109 46.4922 15.2248 46.4982 13.859C46.4922 12.7398 46.79 11.7621 47.3917 10.9257C47.9994 10.0894 48.8328 9.43654 49.8918 8.96722C50.9508 8.4979 52.1541 8.26324 53.5019 8.26324C54.8738 8.26324 56.0712 8.4979 57.0941 8.96722C58.123 9.43654 58.9232 10.0894 59.4948 10.9257C60.0664 11.7621 60.3613 12.7308 60.3793 13.8319H56.6338ZM61.9899 27V8.51595H69.2824C70.6844 8.51595 71.8787 8.78371 72.8655 9.31921C73.8523 9.8487 74.6044 10.5858 75.1219 11.5304C75.6453 12.4691 75.9071 13.5521 75.9071 14.7796C75.9071 16.007 75.6423 17.0901 75.1128 18.0287C74.5834 18.9674 73.8162 19.6984 72.8114 20.2219C71.8125 20.7454 70.6031 21.0071 69.1831 21.0071H64.5351V17.8753H68.5514C69.3035 17.8753 69.9232 17.7459 70.4106 17.4872C70.904 17.2225 71.271 16.8584 71.5117 16.3951C71.7584 15.9258 71.8817 15.3873 71.8817 14.7796C71.8817 14.1659 71.7584 13.6304 71.5117 13.1731C71.271 12.7098 70.904 12.3518 70.4106 12.099C69.9172 11.8403 69.2914 11.7109 68.5333 11.7109H65.8979V27H61.9899ZM77.1747 27V8.51595H81.0827V16.6659H81.3264L87.9781 8.51595H92.6623L85.803 16.7923L92.7435 27H88.0684L83.0051 19.4006L81.0827 21.7472V27H77.1747ZM108.066 13.8319C107.993 13.1039 107.683 12.5383 107.136 12.1351C106.588 11.732 105.845 11.5304 104.907 11.5304C104.269 11.5304 103.73 11.6207 103.291 11.8012C102.852 11.9757 102.515 12.2194 102.28 12.5323C102.052 12.8451 101.937 13.2001 101.937 13.5973C101.925 13.9282 101.994 14.217 102.145 14.4637C102.301 14.7104 102.515 14.924 102.786 15.1045C103.056 15.279 103.369 15.4324 103.724 15.5648C104.079 15.6912 104.458 15.7995 104.862 15.8897L106.522 16.2868C107.328 16.4673 108.069 16.708 108.742 17.0089C109.416 17.3097 110 17.6798 110.493 18.119C110.987 18.5582 111.369 19.0757 111.64 19.6714C111.916 20.267 112.058 20.95 112.064 21.7201C112.058 22.8513 111.769 23.8321 111.197 24.6624C110.632 25.4867 109.813 26.1275 108.742 26.5848C107.677 27.0361 106.393 27.2617 104.889 27.2617C103.396 27.2617 102.097 27.0331 100.99 26.5758C99.8885 26.1185 99.0281 25.4416 98.4083 24.5451C97.7946 23.6425 97.4727 22.5264 97.4426 21.1967H101.224C101.266 21.8164 101.444 22.3339 101.757 22.749C102.076 23.1582 102.5 23.4681 103.029 23.6786C103.565 23.8832 104.17 23.9855 104.843 23.9855C105.505 23.9855 106.08 23.8892 106.567 23.6967C107.061 23.5042 107.443 23.2364 107.714 22.8934C107.984 22.5505 108.12 22.1564 108.12 21.7111C108.12 21.2959 107.996 20.947 107.75 20.6642C107.509 20.3814 107.154 20.1407 106.685 19.9421C106.221 19.7436 105.653 19.5631 104.979 19.4006L102.966 18.8952C101.408 18.5161 100.177 17.9234 99.2748 17.1172C98.3722 16.3109 97.924 15.2248 97.93 13.859C97.924 12.7398 98.2218 11.7621 98.8235 10.9257C99.4312 10.0894 100.265 9.43654 101.324 8.96722C102.383 8.4979 103.586 8.26324 104.934 8.26324C106.306 8.26324 107.503 8.4979 108.526 8.96722C109.555 9.43654 110.355 10.0894 110.927 10.9257C111.498 11.7621 111.793 12.7308 111.811 13.8319H108.066ZM113.349 27V13.137H117.194V27H113.349ZM115.281 11.3499C114.709 11.3499 114.219 11.1604 113.81 10.7813C113.407 10.3962 113.205 9.93595 113.205 9.40044C113.205 8.87095 113.407 8.41667 113.81 8.03761C114.219 7.65252 114.709 7.45998 115.281 7.45998C115.853 7.45998 116.34 7.65252 116.743 8.03761C117.152 8.41667 117.357 8.87095 117.357 9.40044C117.357 9.93595 117.152 10.3962 116.743 10.7813C116.34 11.1604 115.853 11.3499 115.281 11.3499ZM130.538 17.0901L127.018 17.3067C126.958 17.0059 126.828 16.7351 126.63 16.4944C126.431 16.2477 126.17 16.0522 125.845 15.9078C125.526 15.7573 125.144 15.6821 124.698 15.6821C124.103 15.6821 123.6 15.8085 123.191 16.0612C122.782 16.3079 122.577 16.6388 122.577 17.054C122.577 17.3849 122.71 17.6647 122.975 17.8934C123.239 18.122 123.694 18.3055 124.337 18.4439L126.847 18.9493C128.194 19.2261 129.199 19.6714 129.861 20.2851C130.523 20.8988 130.854 21.7051 130.854 22.7039C130.854 23.6125 130.586 24.4097 130.051 25.0956C129.521 25.7816 128.793 26.3171 127.866 26.7022C126.946 27.0812 125.884 27.2708 124.68 27.2708C122.845 27.2708 121.383 26.8887 120.294 26.1245C119.211 25.3544 118.576 24.3074 118.39 22.9837L122.171 22.7851C122.286 23.3447 122.562 23.7719 123.002 24.0667C123.441 24.3556 124.004 24.5 124.689 24.5C125.363 24.5 125.905 24.3706 126.314 24.1119C126.729 23.8471 126.94 23.5072 126.946 23.092C126.94 22.743 126.792 22.4572 126.504 22.2346C126.215 22.0059 125.769 21.8314 125.168 21.7111L122.767 21.2328C121.413 20.962 120.405 20.4927 119.744 19.8248C119.088 19.1569 118.76 18.3055 118.76 17.2706C118.76 16.3801 119 15.6129 119.482 14.9691C119.969 14.3253 120.652 13.8289 121.531 13.4799C122.415 13.1309 123.45 12.9565 124.635 12.9565C126.386 12.9565 127.764 13.3265 128.769 14.0666C129.78 14.8067 130.369 15.8145 130.538 17.0901ZM134.739 27L130.966 13.137H134.856L137.004 22.4512H137.131L139.369 13.137H143.187L145.461 22.397H145.578L147.69 13.137H151.571L147.808 27H143.737L141.354 18.2814H141.183L138.8 27H134.739ZM156.305 27.2617C155.42 27.2617 154.632 27.1083 153.94 26.8014C153.248 26.4886 152.7 26.0283 152.297 25.4206C151.9 24.8068 151.702 24.0427 151.702 23.1281C151.702 22.3579 151.843 21.7111 152.126 21.1876C152.409 20.6642 152.794 20.243 153.281 19.9241C153.768 19.6052 154.322 19.3645 154.942 19.202C155.567 19.0396 156.223 18.9253 156.909 18.8591C157.716 18.7748 158.365 18.6966 158.859 18.6244C159.352 18.5462 159.71 18.4319 159.933 18.2814C160.155 18.131 160.267 17.9084 160.267 17.6136V17.5594C160.267 16.9878 160.086 16.5456 159.725 16.2327C159.37 15.9198 158.865 15.7634 158.209 15.7634C157.517 15.7634 156.966 15.9168 156.557 16.2237C156.148 16.5245 155.877 16.9036 155.745 17.3609L152.189 17.072C152.369 16.2297 152.724 15.5016 153.254 14.8879C153.783 14.2681 154.466 13.7928 155.303 13.4619C156.145 13.1249 157.12 12.9565 158.227 12.9565C158.997 12.9565 159.734 13.0467 160.438 13.2272C161.148 13.4077 161.777 13.6875 162.325 14.0666C162.878 14.4456 163.314 14.933 163.633 15.5287C163.952 16.1184 164.112 16.8253 164.112 17.6497V27H160.465V25.0776H160.357C160.134 25.5108 159.837 25.8929 159.463 26.2238C159.09 26.5487 158.642 26.8044 158.119 26.991C157.595 27.1715 156.99 27.2617 156.305 27.2617ZM157.406 24.6083C157.971 24.6083 158.471 24.497 158.904 24.2743C159.337 24.0457 159.677 23.7388 159.924 23.3537C160.17 22.9686 160.294 22.5324 160.294 22.045V20.5739C160.173 20.6521 160.008 20.7243 159.797 20.7905C159.593 20.8507 159.361 20.9078 159.102 20.962C158.844 21.0101 158.585 21.0553 158.326 21.0974C158.068 21.1335 157.833 21.1666 157.622 21.1967C157.171 21.2628 156.777 21.3681 156.44 21.5125C156.103 21.657 155.841 21.8525 155.655 22.0992C155.468 22.3399 155.375 22.6407 155.375 23.0017C155.375 23.5252 155.564 23.9253 155.944 24.2021C156.329 24.4729 156.816 24.6083 157.406 24.6083Z" fill="white"/>
<path d="M2 9.94738C2 5.00587 6.00587 1 10.9474 1H27.0526C31.9941 1 36 5.00587 36 9.94738V26.0526C36 30.9941 31.9941 35 27.0526 35H10.9474C6.00587 35 2 30.9941 2 26.0526V9.94738Z" fill="white"/>
<path d="M19 22.3009C20.8663 21.8275 23.0204 21.5251 25.2785 21.4193C26.9115 21.3002 28.5754 21.2462 30.2407 21.2582C30.6424 21.268 31.0188 21.3329 31.2935 21.4398C31.5682 21.5466 31.7206 21.6874 31.7197 21.8336L31.75 27.2836C31.75 27.3595 31.7086 27.4348 31.628 27.5049C31.5475 27.575 31.4295 27.6387 31.2809 27.6922C31.1322 27.7457 30.9558 27.788 30.7619 27.8166C30.568 27.8452 30.3604 27.8596 30.1511 27.8589C28.5152 27.8515 26.8818 27.9073 25.2785 28.0255C23.018 28.1276 20.8622 28.4308 19 28.9066C17.1378 28.4308 14.982 28.1276 12.7215 28.0255C11.1182 27.9073 9.4848 27.8515 7.84892 27.8589C7.6396 27.8596 7.43199 27.8452 7.23808 27.8166C7.04417 27.788 6.86779 27.7457 6.71914 27.6922C6.57048 27.6387 6.45249 27.575 6.37197 27.5049C6.29145 27.4348 6.24999 27.3595 6.25 27.2836L6.27895 21.8336C6.27807 21.6874 6.43061 21.5465 6.70559 21.4396C6.98057 21.3328 7.35734 21.2679 7.75932 21.2582C9.4246 21.2462 11.0885 21.3002 12.7215 21.4193C14.9796 21.5251 17.1337 21.8275 19 22.3009ZM19 28.9066V22.3009" stroke="url(#paint0_linear_45_36)" stroke-width="2.55" stroke-linecap="round" stroke-linejoin="round"/>
<path d="M20.361 5.66792C20.361 5.3448 20.0918 5.07554 19.7769 5.08382L17.8382 5.08382C17.5234 5.07554 17.2541 5.3448 17.2541 5.66792L17.25 7.18822L20.3569 7.18822M17.2541 17.2338L18.8076 18.7873L20.361 17.2338L20.3569 8.06644L17.25 8.06644L17.2541 17.2338Z" fill="url(#paint1_linear_45_36)"/>
<defs>
<linearGradient id="paint0_linear_45_36" x1="31.4387" y1="28.8132" x2="29.7946" y2="17.8619" gradientUnits="userSpaceOnUse">
<stop offset="0.312611" stop-color="#8E0690"/>
<stop offset="0.98573" stop-color="#C634AE"/>
</linearGradient>
<linearGradient id="paint1_linear_45_36" x1="26.0831" y1="11.3297" x2="12.9841" y2="6.96853" gradientUnits="userSpaceOnUse">
<stop offset="0.312611" stop-color="#8E0690"/>
<stop offset="0.98573" stop-color="#C634AE"/>
</linearGradient>
</defs>
</svg>
