<svg width="32" height="32" viewBox="0 0 32 32" fill="none" xmlns="http://www.w3.org/2000/svg">
<g clip-path="url(#clip0_45_70)">
<path d="M0.5 8.42107C0.5 3.77023 4.27023 0 8.92108 0H24.0789C28.7297 0 32.5 3.77023 32.5 8.42107V23.5789C32.5 28.2297 28.7297 32 24.0789 32H8.92108C4.27023 32 0.5 28.2297 0.5 23.5789V8.42107Z" fill="white"/>
<path d="M16.5 19.5843C18.1102 19.1759 19.9686 18.915 21.9168 18.8238C23.3256 18.721 24.7611 18.6744 26.1978 18.6848C26.5444 18.6932 26.8692 18.7492 27.1062 18.8414C27.3432 18.9336 27.4746 19.0551 27.4738 19.1812L27.5 23.8831C27.5 23.9486 27.4642 24.0135 27.3948 24.0741C27.3253 24.1346 27.2235 24.1895 27.0953 24.2356C26.967 24.2818 26.8148 24.3183 26.6475 24.3429C26.4802 24.3676 26.3011 24.3801 26.1205 24.3795C24.7092 24.373 23.3 24.4212 21.9168 24.5232C19.9665 24.6113 18.1066 24.8729 16.5 25.2833C14.8934 24.8729 13.0335 24.6113 11.0832 24.5232C9.70004 24.4212 8.29082 24.373 6.87947 24.3795C6.69888 24.3801 6.51976 24.3676 6.35247 24.3429C6.18517 24.3183 6.033 24.2818 5.90475 24.2356C5.7765 24.1895 5.6747 24.1346 5.60523 24.0741C5.53576 24.0135 5.5 23.9486 5.50001 23.8831L5.52498 19.1812C5.52422 19.055 5.65583 18.9335 5.89306 18.8413C6.1303 18.7491 6.45535 18.6931 6.80217 18.6848C8.23888 18.6744 9.67441 18.721 11.0832 18.8238C13.0314 18.915 14.8898 19.1759 16.5 19.5843ZM16.5 25.2833V19.5843" stroke="url(#paint0_linear_45_70)" stroke-width="2.2" stroke-linecap="round" stroke-linejoin="round"/>
<path d="M17.6742 5.23421C17.6742 4.95544 17.4419 4.72314 17.1703 4.73029L15.4977 4.73029C15.2261 4.72314 14.9938 4.95544 14.9938 5.23421L14.9902 6.54585L17.6707 6.54585M14.9938 15.2127L16.334 16.5529L17.6742 15.2127L17.6706 7.30352L14.9902 7.30352L14.9938 15.2127Z" fill="url(#paint1_linear_45_70)"/>
</g>
<defs>
<linearGradient id="paint0_linear_45_70" x1="27.2314" y1="25.2028" x2="25.813" y2="15.7546" gradientUnits="userSpaceOnUse">
<stop offset="0.312611" stop-color="#8E0690"/>
<stop offset="0.98573" stop-color="#C634AE"/>
</linearGradient>
<linearGradient id="paint1_linear_45_70" x1="22.6109" y1="10.1189" x2="11.3098" y2="6.35631" gradientUnits="userSpaceOnUse">
<stop offset="0.312611" stop-color="#8E0690"/>
<stop offset="0.98573" stop-color="#C634AE"/>
</linearGradient>
<clipPath id="clip0_45_70">
<rect width="32" height="32" fill="white"/>
</clipPath>
</defs>
</svg>
