<svg width="46" height="46" viewBox="0 0 46 46" fill="none" xmlns="http://www.w3.org/2000/svg">
<mask id="mask0_54_21" style="mask-type:alpha" maskUnits="userSpaceOnUse" x="0" y="0" width="46" height="46">
<circle cx="23" cy="23" r="23" fill="#D9D9D9"/>
</mask>
<g mask="url(#mask0_54_21)">
<circle cx="23" cy="23" r="23" fill="#C5C9D7"/>
<path d="M16.9792 23.6429C15.3264 21.9762 14.5 19.9524 14.5 17.5714C14.5 15.1905 15.3264 13.1667 16.9792 11.5C18.6319 9.83333 20.6389 9 23 9C25.3611 9 27.3681 9.83333 29.0208 11.5C30.6736 13.1667 31.5 15.1905 31.5 17.5714C31.5 19.9524 30.6736 21.9762 29.0208 23.6429C27.3681 25.3095 25.3611 26.1429 23 26.1429C20.6389 26.1429 18.6319 25.3095 16.9792 23.6429ZM6 49V37.8571C6 36.8571 6.23611 35.9048 6.70833 35C7.18056 34.0952 7.84167 33.381 8.69167 32.8571C10.8167 31.5714 13.072 30.6076 15.4577 29.9657C17.8433 29.3238 20.3574 29.0019 23 29C25.6426 28.9981 28.1576 29.32 30.5452 29.9657C32.9327 30.6114 35.1871 31.5752 37.3083 32.8571C38.1583 33.381 38.8194 34.0952 39.2917 35C39.7639 35.9048 40 36.8571 40 37.8571V49H6Z" fill="url(#paint0_linear_54_21)"/>
</g>
<defs>
<linearGradient id="paint0_linear_54_21" x1="25.5" y1="38" x2="29.8937" y2="12.765" gradientUnits="userSpaceOnUse">
<stop stop-color="#461436"/>
<stop offset="0.98573" stop-color="#962C6F"/>
</linearGradient>
</defs>
</svg>
